<svg id="visual" viewBox="0 0 3840 2160" width="3840" height="2160" xmlns="http://www.w3.org/2000/svg" xmlns:xlink="http://www.w3.org/1999/xlink" version="1.1"><rect x="0" y="0" width="3840" height="2160" fill="#002233"></rect><path d="M0 1038L64 1126C128 1214 256 1390 384 1425.8C512 1461.7 640 1357.3 768 1282.5C896 1207.7 1024 1162.3 1152 1194C1280 1225.7 1408 1334.3 1536 1304.7C1664 1275 1792 1107 1920 1021C2048 935 2176 931 2304 1024.2C2432 1117.3 2560 1307.7 2688 1395.3C2816 1483 2944 1468 3072 1513.3C3200 1558.7 3328 1664.3 3456 1623.5C3584 1582.7 3712 1395.3 3776 1301.7L3840 1208L3840 2161L3776 2161C3712 2161 3584 2161 3456 2161C3328 2161 3200 2161 3072 2161C2944 2161 2816 2161 2688 2161C2560 2161 2432 2161 2304 2161C2176 2161 2048 2161 1920 2161C1792 2161 1664 2161 1536 2161C1408 2161 1280 2161 1152 2161C1024 2161 896 2161 768 2161C640 2161 512 2161 384 2161C256 2161 128 2161 64 2161L0 2161Z" fill="#0066FF" stroke-linecap="round" stroke-linejoin="miter"></path></svg>